Coordinates
version=1
nRows=43
nColumns=12
inDegrees=yes

Units are S.I. units (second, meters, Newtons, ...)
Angles are in degrees

endheader
time	SC_y	SC_z	SC_x	AC_y	AC_z	AC_x	GH_y	GH_z	GH_yy	EL_x	PS_y
       0.0              -51.92        -0.2802          77.43          69.32         -7.475          14.25          52.91          62.29          18.18          97.12          143.7
   0.04354              -51.92        -0.2752          77.43          69.32         -7.474          14.25          52.89          62.29          18.18          97.12          143.7
   0.08707              -51.92        -0.2699          77.42          69.32         -7.473          14.25          52.86           62.3          18.18          97.11          143.7
    0.1306              -51.92        -0.2643          77.42          69.32         -7.472          14.24          52.83           62.3          18.17           97.1          143.6
    0.1741              -51.92        -0.2583          77.42          69.31         -7.471          14.24           52.8           62.3          18.17           97.1          143.6
    0.2177              -51.93         -0.252          77.42          69.31          -7.47          14.24          52.77           62.3          18.16          97.09          143.6
    0.2612              -51.93        -0.2451          77.42          69.31         -7.469          14.23          52.74           62.3          18.16          97.08          143.6
    0.3048              -51.93        -0.2379          77.42          69.31         -7.467          14.23           52.7           62.3          18.15          97.07          143.5
    0.3483              -51.93          -0.23          77.41          69.31         -7.466          14.22          52.66           62.3          18.14          97.07          143.5
    0.3918              -51.93        -0.2217          77.41          69.31         -7.465          14.22          52.62           62.3          18.14          97.06          143.5
    0.4354              -51.93        -0.2127          77.41           69.3         -7.463          14.21          52.58           62.3          18.13          97.05          143.5
    0.4789              -51.93         -0.203          77.41           69.3         -7.461           14.2          52.53           62.3          18.12          97.04          143.4
    0.5224              -51.93        -0.1926           77.4           69.3         -7.459           14.2          52.48           62.3          18.11          97.02          143.4
     0.566              -51.94        -0.1813           77.4           69.3         -7.458          14.19          52.42           62.3           18.1          97.01          143.3
    0.6095              -51.94        -0.1691           77.4          69.29         -7.455          14.18          52.36           62.3          18.09           97.0          143.3
    0.6531              -51.94        -0.1559          77.39          69.29         -7.453          14.17           52.3           62.3          18.08          96.98          143.2
    0.6966              -51.94        -0.1415          77.39          69.29         -7.451          14.16          52.23          62.31          18.07          96.97          143.2
    0.7401              -51.94        -0.1259          77.38          69.29         -7.448          14.15          52.15          62.31          18.06          96.95          143.1
    0.7837              -51.95        -0.1088          77.38          69.28         -7.445          14.14          52.07          62.31          18.05          96.93          143.1
    0.8272              -51.95       -0.09009          77.37          69.28         -7.442          14.13          51.97          62.31          18.03          96.91          143.0
    0.8707              -51.95       -0.06954          77.37          69.27         -7.438          14.12          51.87          62.31          18.01          96.88          142.9
    0.9143              -51.95       -0.04692          77.36          69.27         -7.434           14.1          51.76          62.31           18.0          96.86          142.8
    0.9578              -51.96       -0.02194          77.36          69.26          -7.43          14.09          51.64          62.31          17.98          96.83          142.7
     1.001              -51.96        0.00573          77.35          69.26         -7.425          14.07           51.5          62.32          17.95           96.8          142.6
     1.045              -51.97         0.0365          77.34          69.25         -7.419          14.05          51.35          62.32          17.93          96.76          142.5
     1.088              -51.97        0.07083          77.33          69.24         -7.413          14.03          51.18          62.32           17.9          96.72          142.4
     1.132              -51.98         0.1093          77.32          69.23         -7.407           14.0          50.99          62.33          17.87          96.68          142.3
     1.176              -51.98         0.1525          77.31          69.22         -7.399          13.98          50.78          62.33          17.83          96.63          142.1
     1.219              -51.99         0.2014          77.29          69.21         -7.391          13.94          50.54          62.33          17.79          96.57          141.9
     1.263               -52.0         0.2569          77.28           69.2         -7.381          13.91          50.26          62.34          17.75          96.51          141.7
     1.306              -52.01         0.3203          77.26          69.19          -7.37          13.87          49.95          62.34           17.7          96.44          141.5
      1.35              -52.02          0.393          77.24          69.17         -7.357          13.82          49.59          62.35          17.64          96.36          141.2
     1.393              -52.03         0.4769          77.22          69.15         -7.342          13.77          49.18          62.35          17.57          96.26          140.9
     1.437              -52.04         0.5745          77.19          69.13         -7.325           13.7           48.7          62.36          17.49          96.15          140.5
      1.48              -52.06         0.6886          77.16          69.11         -7.305          13.63          48.13          62.37           17.4          96.02          140.1
     1.524              -52.08         0.8231          77.12          69.08         -7.282          13.54          47.47          62.38          17.29          95.87          139.6
     1.567               -52.1          0.983          77.08          69.04         -7.254          13.44          46.68          62.39          17.16          95.69          139.0
     1.611              -52.13          1.175          77.03           69.0          -7.22          13.32          45.73          62.41          17.01          95.47          138.3
     1.654              -52.16          1.406          76.96          68.95          -7.18          13.17          44.59          62.43          16.82           95.2          137.4
     1.698              -52.21           1.69          76.88          68.89          -7.13          12.98          43.19          62.45          16.59          94.88          136.4
     1.741              -52.26          2.039          76.79          68.81         -7.069          12.76          41.47          62.48          16.31          94.48          135.1
     1.785              -52.32          2.475          76.67          68.72         -6.993          12.48          39.32          62.51          15.96          93.99          133.5
     1.829               -52.4          3.024          76.51           68.6         -6.897          12.12          36.61          62.56          15.51          93.36          131.4
